<?xml version="1.0" encoding="UTF-8" standalone="no"?>
<svg
   xmlns:dc="http://purl.org/dc/elements/1.1/"
   xmlns:cc="http://creativecommons.org/ns#"
   xmlns:rdf="http://www.w3.org/1999/02/22-rdf-syntax-ns#"
   xmlns:svg="http://www.w3.org/2000/svg"
   xmlns="http://www.w3.org/2000/svg"
   xmlns:sodipodi="http://sodipodi.sourceforge.net/DTD/sodipodi-0.dtd"
   xmlns:inkscape="http://www.inkscape.org/namespaces/inkscape"
   width="497.06308mm"
   height="248.53154mm"
   viewBox="0 0 497.06308 248.53154"
   version="1.1"
   id="svg8"
   sodipodi:docname="background.svg"
   inkscape:version="1.0.2 (e86c870879, 2021-01-15, custom)">
  <defs
     id="defs2" />
  <sodipodi:namedview
     id="base"
     pagecolor="#ffffff"
     bordercolor="#666666"
     borderopacity="1.0"
     inkscape:pageopacity="0.0"
     inkscape:pageshadow="2"
     inkscape:zoom="0.35"
     inkscape:cx="1268.4961"
     inkscape:cy="858.49743"
     inkscape:document-units="mm"
     inkscape:current-layer="layer1"
     inkscape:document-rotation="0"
     showgrid="false"
     fit-margin-top="0"
     fit-margin-left="0"
     fit-margin-right="0"
     fit-margin-bottom="0"
     inkscape:window-width="1920"
     inkscape:window-height="1048"
     inkscape:window-x="0"
     inkscape:window-y="0"
     inkscape:window-maximized="1" />
  <metadata
     id="metadata5">
    <rdf:RDF>
      <cc:Work
         rdf:about="">
        <dc:format>image/svg+xml</dc:format>
        <dc:type
           rdf:resource="http://purl.org/dc/dcmitype/StillImage" />
        <dc:title></dc:title>
      </cc:Work>
    </rdf:RDF>
  </metadata>
  <g
     inkscape:label="Layer 1"
     inkscape:groupmode="layer"
     id="layer1"
     transform="translate(-291.90783,-150)">
    <g
       id="g2066"
       transform="matrix(0.0398301,0,0,0.0398301,464.95904,181.49217)">
      <circle
         cx="632.09003"
         cy="317.70999"
         r="42.380001"
         id="circle2046" />
      <path
         d="m 705.15,363.41 a 198.82,198.82 0 0 1 20.6,88.36 c 0,109.87 -88.65,198.94 -198,198.94 -109.35,0 -198,-89.07 -198,-198.94 0,-109.87 88.65,-198.94 198,-198.94 2.07,0 4.11,0.09 6.16,0.16 A 244.87,244.87 0 0 0 500,250.58 c -134.21,0 -243,108.79 -243,243 0,134.21 108.79,243 243,243 134.21,0 243,-108.79 243,-243 A 241.77,241.77 0 0 0 705.15,363.41 Z"
         id="path2048" />
      <path
         d="M 110.25,214.33 450.9,413.89 a 20.75,20.75 0 0 0 22.87,-1.25 l 43.48,-32.31 c -29,38.58 -52.83,74.42 -66.5,105 z"
         id="path2050" />
      <path
         d="m 516.75,535.33 -64,-65 -334.5,393.5 348.49,-322.35 a 34.07,34.07 0 0 1 27.09,-8.83 z"
         id="path2052" />
    </g>
    <g
       id="g2087"
       transform="matrix(0.0398301,0,0,0.0398301,370.17963,331.39668)">
      <circle
         cx="551.96002"
         cy="488.70999"
         r="42.380001"
         id="circle2070" />
      <path
         d="m 498.61,250.58 c -122.76,0 -224.42,89.64 -242.23,206.59 21,-76.94 102.74,-134.34 200.48,-134.34 113.63,0 205.75,77.57 205.75,173.25 0,95.68 -92.11,173.25 -205.75,173.25 -94.85,0 -174.66,-54.06 -198.47,-127.57 22.42,111.38 121.44,195.32 240.22,195.32 135.31,0 245,-108.91 245,-243.25 0,-134.34 -109.69,-243.25 -245,-243.25 z"
         id="path2072" />
      <path
         d="m 375.11,848.83 c 35,-11 70.4,-15.52 106,-15 l -19.33,-21.6 a 25.12,25.12 0 0 1 -6.39,-16.15 L 443.11,279.83 c -16.64,-81.77 -34.36,-166.81 -36,-203.5 l -0.49,713.12 a 49.08,49.08 0 0 1 -9.33,28.75 z"
         id="path2074" />
    </g>
    <g
       id="g2117"
       transform="matrix(0.0398301,0,0,0.0398301,653.34314,159.76221)">
      <path
         d="m 500,253.83 a 242.22,242.22 0 0 0 -41.68,3.67 212.09,212.09 0 0 1 23.23,-1.31 c 116,0 210,94 210,210 0,116 -94,210 -210,210 -116,0 -210,-94 -210,-210 A 209,209 0 0 1 301,358.91 239.85,239.85 0 0 0 259,494.83 c 0,133.1 107.9,241 241,241 133.1,0 241,-107.9 241,-241 0,-133.1 -107.9,-241 -241,-241 z"
         id="path2091" />
      <circle
         cx="365"
         cy="302.82999"
         r="39.5"
         id="circle2093" />
      <path
         d="M 511.5,449.33 225.64,655.25 A 17.39,17.39 0 0 1 215,658.52 l -27,-0.69 a 681,681 0 0 1 60.5,64 l -0.4,-23.23 a 12.87,12.87 0 0 1 4.13,-9.68 z"
         id="path2095" />
      <path
         d="m 547.81,371.89 c 24.65,18.35 44.75,38 65.52,61.56 L 613,407.7 a 12.78,12.78 0 0 1 4,-9.47 L 855,173.77 585,367.51 a 17.27,17.27 0 0 1 -10.13,3.24 z"
         id="path2097" />
      <path
         d="M 824.94,765.46 642.68,555.14 a 16.85,16.85 0 0 1 -4.12,-11 v -23.75 c -17.73,17.92 -39.63,35.56 -63.75,53.06 l 26.56,-0.15 a 17.81,17.81 0 0 1 11.91,4.48 z"
         id="path2099" />
      <path
         d="M 500.94,867.08 500,639.48 a 10.13,10.13 0 0 1 3.8,-8 l 14.93,-13.44 c -26.75,3.34 -54.36,3.16 -82.69,0 l 14.76,18 a 29.29,29.29 0 0 1 6.86,13.77 z"
         id="path2101" />
    </g>
    <g
       id="g2141"
       transform="matrix(0.0398301,0,0,0.0398301,304.04454,219.38607)">
      <circle
         cx="591.91998"
         cy="535.58002"
         r="42.75"
         id="circle2121" />
      <path
         d="m 577.19,329.67 c 14,4.41 28.76,9.57 41.32,16.53 a 24.94,24.94 0 0 1 10.68,11.63 l 10.08,22.54 a 54.84,54.84 0 0 1 27.9,-12.3 l 11.09,-43.88 a 246.39,246.39 0 0 0 -176.9,-74.37 c -135.76,0 -245.81,108.79 -245.81,243 0,134.21 110.05,243 245.81,243 123.35,0 225.46,-89.82 243.1,-206.91 -17.88,80.13 -104,140.91 -206.16,140.91 -114.94,0 -206.81,-76.9 -206.81,-171.75 0,-88.87 82.69,-174.94 186.94,-174.94 20.13,0 39.42,0.56 57.32,6 z"
         id="path2123" />
      <path
         d="m 207.53,506.43 -3.74,-87.1 703.5,-4.12 -664.67,62.27 c -5,0.47 -13.92,4.75 -17.4,8.34 z"
         id="path2125" />
      <path
         d="m 505.29,195.83 c -29.54,3.71 -62.51,3.29 -97.87,0 l 22.55,15 a 13.74,13.74 0 0 1 6.06,10.2 l 60.64,676.76 -2.23,-678.49 a 23.1,23.1 0 0 1 3.81,-12.79 z"
         id="path2127" />
    </g>
    <g
       id="g2171"
       transform="matrix(0.0398301,0,0,0.0398301,702.34891,215.36848)">
      <path
         d="m 500,274.89 c -127.22,0 -230.34,103.13 -230.34,230.34 a 229.29,229.29 0 0 0 47,139.39 188.08,188.08 0 0 1 -33.5,-107.32 c 0,-105.16 86.17,-190.41 192.47,-190.41 106.3,0 192.46,85.25 192.46,190.41 0,105.16 -86.17,190.41 -192.46,190.41 A 193.41,193.41 0 0 1 394.3,709.88 229.26,229.26 0 0 0 500,735.58 c 127.22,0 230.34,-103.13 230.34,-230.34 C 730.34,378.03 627.22,274.89 500,274.89 Z"
         id="path2145" />
      <circle
         cx="478.78"
         cy="514.33002"
         r="37.5"
         id="circle2147" />
      <path
         d="M 663.53,239.72 544.63,430.8 C 533,416.85 516.88,412.61 505,410.27 l 121.09,-191 c 1.47,-3.16 1.31,-4.31 0.48,-7.34 l -4,-14.64 4.89,-8.38 c 27.64,17.22 55.06,33.38 73.36,40.13 l -26.26,4.44 c -7.08,1.21 -7.08,1.21 -11.03,6.24 z"
         id="path2149" />
      <path
         d="m 367.79,208.15 20.93,18.18 c 4.58,4.7 11,13.65 12.62,20 L 450,429.21 441.61,212.88 A 36.17,36.17 0 0 1 444,199 l 2.7,-7.17 z"
         id="path2151" />
      <path
         d="m 568.34,521.46 214.19,-83 a 13.12,13.12 0 0 0 6.76,-6.78 l 9.49,-16.57 c -1.69,15.66 1,58.19 9,102.38 l -32.8,-33 a 8,8 0 0 0 -7.28,-2.3 z"
         id="path2153" />
      <path
         d="M 220.91,848.83 393,583.33 c 11.65,12.05 24.41,22.89 39.37,31.31 z"
         id="path2155" />
    </g>
    <g
       id="g2195"
       transform="matrix(0.0398301,0,0,0.0398301,727.68831,329.084)">
      <path
         d="m 601.63,267.1 a 200.64,200.64 0 0 1 94.12,170.73 c 0,110.46 -88,200 -196.5,200 -108.5,0 -196.5,-89.54 -196.5,-200 A 200.67,200.67 0 0 1 392.42,270 c -79.51,40.24 -134.17,123.65 -134.17,220.07 0,135.72 108.24,245.75 241.75,245.75 133.51,0 241.75,-110 241.75,-245.75 0,-98.8 -57.4,-183.94 -140.12,-222.97 z"
         id="path2175" />
      <circle
         cx="499.25"
         cy="258.82999"
         r="42.75"
         id="circle2177" />
      <path
         d="m 137.25,386.83 c 3.83,32.56 3.83,68.69 1.5,107 a 146.67,146.67 0 0 0 27.5,-37.5 l 747.5,-41.5 -750.5,-4 c -4.32,-8.18 -14.54,-16.12 -26,-24 z"
         id="path2179" />
      <path
         d="m 452.25,549.33 25.5,16 23,352 14.5,-354.5 27.31,-13.75 a 696.52,696.52 0 0 1 -90.31,0.25 z"
         id="path2181" />
    </g>
    <g
       id="g2219"
       transform="matrix(0.0398301,0,0,0.0398301,633.41936,320.37361)">
      <path
         d="m 671.33,393.27 a 248.8,248.8 0 0 1 5.42,51.81 c 0,116.81 -80,211.5 -178.75,211.5 -98.75,0 -178.75,-94.69 -178.75,-211.5 0,-102.74 61.92,-188.33 144,-207.47 v -0.32 C 342.05,255.07 249,359.44 249,485.58 c 0,138.62 112.38,251 251,251 138.62,0 251,-112.38 251,-251 A 249.82,249.82 0 0 0 723.63,371.64 c -13.27,12.76 -30.73,20.59 -52.3,21.63 z"
         id="path2199" />
      <circle
         cx="597.59003"
         cy="292.95999"
         r="42.380001"
         id="circle2201" />
      <path
         d="m 586.25,404.71 a 112.83,112.83 0 0 1 1.87,20.29 c 0,58.82 -45.08,106.5 -100.69,106.5 -55.61,0 -100.68,-47.73 -100.68,-106.5 0,-49 31.35,-90.19 74,-102.59 a 141.56,141.56 0 1 0 157.87,82.34 c -9.22,3.01 -19,4.93 -32.37,-0.04 z"
         id="path2203" />
      <path
         d="M 816.87,794.33 523.25,411.08 c 3.19,-16.71 0.63,-28.37 -0.75,-37.12 l -77.25,63 15,2.76 a 24.1,24.1 0 0 1 12.8,6.76 z"
         id="path2205" />
    </g>
    <g
       id="g2243"
       transform="matrix(0.0398301,0,0,0.0398301,722.67159,149.13915)">
      <path
         d="m 537,279.37 c 75.81,18.27 132.8,96.48 132.8,190.21 0,107.28 -74.66,194.25 -166.75,194.25 -92.09,0 -166.75,-87 -166.75,-194.25 a 220,220 0 0 1 17.1,-85.7 l -28.62,-26.49 a 229.13,229.13 0 0 0 -54.9,149.08 c 0,127.08 103,230.11 230.11,230.11 127.11,0 230.11,-103 230.11,-230.11 C 730.11,392 646.49,297.08 537,279.37 Z"
         id="path2223" />
      <polygon
         points="797.56,939.08 328.56,352.08 293.55,404.83 "
         id="polygon2225" />
      <path
         d="m 809.56,831.83 -195,-283.7 a 9.05,9.05 0 0 1 -0.72,-9 l 7.33,-15.46 -66.37,52.48 13.94,-3.56 a 10,10 0 0 1 9.92,3 z"
         id="path2227" />
      <circle
         cx="423.81"
         cy="304.82999"
         r="38.75"
         id="circle2229" />
    </g>
    <g
       id="g2267"
       transform="matrix(0.0398301,0,0,0.0398301,316.4562,340.94899)">
      <path
         d="m 560.76,141.91 -98.17,22.34 25,12.51 a 13.81,13.81 0 0 1 7,8.28 l 75.23,243.78 z"
         id="path2247" />
      <path
         d="m 692.29,292.64 a 38.63,38.63 0 1 1 -38.63,-38.21 38.42,38.42 0 0 1 38.63,38.21 z"
         id="path2249" />
      <path
         d="m 533.8,442.86 -97,-245.9 a 26,26 0 0 1 -1.73,-11.51 l 1.59,-20.72 -101.82,55.41 33.54,1.5 a 6.46,6.46 0 0 1 4.92,2.63 z"
         id="path2251" />
      <path
         d="M 536.22,668.13 C 420.55,665.08 328.85,584.27 331.4,487.63 333.89,393.11 425.64,318.51 537.89,318.14 V 246 a 250.54,250.54 0 0 0 -36.22,-2.65 C 364.9,243.33 254,353.75 254,490 c 0,136.25 110.9,246.58 247.66,246.58 123,0 225,-89.34 244.31,-206.41 C 726,611.25 639,670.84 536.22,668.13 Z"
         id="path2253" />
    </g>
    <g
       id="g2300"
       transform="matrix(0.0398301,0,0,0.0398301,457.58669,313.19075)">
      <path
         d="M 724.73,398.57 A 204.87,204.87 0 0 1 736,465.64 C 736,579.72 642.88,672.2 528,672.2 413.12,672.2 320,579.72 320,465.64 320,351.56 413.12,259.08 528,259.08 a 208.85,208.85 0 0 1 72,12.73 244,244 0 0 0 -100,-21.36 c -134.76,0 -244,108.74 -244,242.87 0,134.13 109.24,242.89 244,242.89 134.76,0 244,-108.74 244,-242.88 a 241.13,241.13 0 0 0 -19.27,-94.76 z"
         id="path2271" />
      <circle
         cx="501.75"
         cy="475.95999"
         r="40.25"
         id="circle2273" />
      <path
         d="m 557,361.71 a 398.11,398.11 0 0 1 63,62 l -0.16,-20.1 A 24,24 0 0 1 627,386.33 L 818.5,196.71 593.12,357.2 a 22.2,22.2 0 0 1 -12.51,4.11 z"
         id="path2275" />
      <path
         d="M 770,780.68 676.26,590.44 A 25.13,25.13 0 0 1 674,575.1 l 3,-17.39 c -19.77,18.94 -40.81,35.5 -64,48 l 17.75,4.1 a 27.25,27.25 0 0 1 15.47,9.94 z"
         id="path2277" />
      <path
         d="m 351.5,896.71 71.81,-274.54 a 14.61,14.61 0 0 0 -2.09,-12 l -13.72,-20 c 28,17 54.7,29.5 79.5,35.5 l -16.25,7.65 a 26.77,26.77 0 0 0 -13.24,13.76 z"
         id="path2279" />
      <path
         d="m 51.5,483.21 284.91,3.92 a 18,18 0 0 0 11,-3.56 L 368,468.21 c -4.92,24.24 -4.42,49.49 0,75.5 l -19.89,-14.32 a 25.76,25.76 0 0 0 -11.34,-4.59 z"
         id="path2281" />
      <path
         d="m 335,145.46 109.48,163 a 12.62,12.62 0 0 1 2.08,8.25 l -2.56,26.5 c 18.09,-18.75 41,-34.53 67.75,-48 l -28.68,-5.1 a 16.31,16.31 0 0 1 -8.71,-4.56 z"
         id="path2283" />
    </g>
    <g
       id="g2324"
       transform="matrix(0.0398301,0,0,0.0398301,559.09884,153.16022)">
      <path
         d="m 500,235.58 c -140.63,0 -254.62,112.82 -254.62,252 0,125.8 93.15,230.05 214.91,248.93 C 378.44,716.35 317,631.55 317,530 c 0,-116.6 80.92,-211.13 180.75,-211.13 99.83,0 180.75,94.48 180.75,211.13 0,104.32 -64.79,190.91 -149.93,208 127.17,-14.1 226.06,-120.81 226.06,-250.42 0,-139.18 -114,-252 -254.63,-252 z"
         id="path2304" />
      <path
         d="M 498.5,367.58 C 419.8,367.58 356,430.88 356,509 356,573.71 399.85,628.23 459.66,645 421.8,629.23 395,590.6 395,545.33 c 0,-59.23 45.83,-107.25 102.38,-107.25 56.55,0 102.38,48 102.38,107.25 0,47 -28.92,86.86 -69.1,101.34 C 593.86,632.2 641,576.06 641,509 641,430.88 577.2,367.58 498.5,367.58 Z"
         id="path2306" />
      <circle
         cx="492.5"
         cy="575.33002"
         r="42.75"
         id="circle2308" />
      <path
         d="M 626.75,624.83 329,227.33 c 2.45,-6.68 3.1,-15 3,-24 l -96.75,96 46.6,-18.78 a 5.91,5.91 0 0 1 6.41,1.33 z"
         id="path2310" />
    </g>
    <g
       id="g2348"
       transform="matrix(0.0398301,0,0,0.0398301,357.62848,265.86472)">
      <path
         d="m 302.44,292.45 -72,89.76 24.56,-10.26 a 13.7,13.7 0 0 1 15.23,3.2 L 477.87,593.83 313.94,328.47 a 75.13,75.13 0 0 1 -10.43,-28.7 z"
         id="path2328" />
      <path
         d="m 588.1,493.79 c 0,21.21 -17.69,38.41 -39.54,38.42 C 526.71,532.22 509,515 509,493.83 v 0 c 0,-21.21 17.71,-38.4 39.57,-38.4 21.86,0 39.57,17.19 39.57,38.4 v 0 z"
         id="path2330" />
      <path
         d="M 491.63,251 C 372,255.25 272.3,355.75 258.88,474 l 72.32,50.88 c -9.35,-59 45,-163.05 162.26,-159 89.4,3 151.75,65.67 159.86,154.76 13.33,146.46 -98.23,208.51 -173.78,215 C 649.31,735.58 738.44,598.2 741,494 744.56,352.81 630,246 491.63,251 Z"
         id="path2332" />
      <path
         d="M 467.53,471.37 402.65,162.58 c -1.8,-8.38 -0.65,-10.42 3.25,-18.05 l 17,-33.2 -105.8,51.41 8.46,8.35 A 79.23,79.23 0 0 1 342,194.75 Z"
         id="path2334" />
    </g>
    <g
       id="g2372"
       transform="matrix(0.0398301,0,0,0.0398301,383.62074,165.5839)">
      <path
         d="m 504.54,678.53 32,-443.3 a 44.14,44.14 0 0 1 3.73,-14.84 l 7.4,-16.55 c -30.68,9.42 -73,10.74 -118.74,9.75 l 35.51,18 c 7.42,3.7 12.31,3.7 12.84,12 z"
         id="path2352" />
      <path
         d="m 536.74,134.56 a 39.39,39.39 0 1 1 -39.39,-39.39 39.39,39.39 0 0 1 39.39,39.39 z"
         id="path2354" />
      <path
         d="m 500,268.33 c -142.7,0 -258.37,112 -258.37,250.13 0,125.16 95,228.85 218.95,247.23 -81.08,-21.08 -141.7,-105.1 -141.7,-205.6 0,-116.39 81.26,-210.75 181.5,-210.75 100.24,0 181.5,94.36 181.5,210.75 0,99.94 -59.93,183.58 -140.33,205.24 C 664.48,746.08 758.38,642.9 758.38,518.46 758.38,380.32 642.7,268.33 500,268.33 Z"
         id="path2356" />
      <path
         d="m 500,393.58 c -81,0 -146.62,64.14 -146.62,143.25 0,63.35 42.11,117.06 100.46,136 -32.9,-17.83 -55.46,-53.83 -55.46,-95.5 0,-59.23 45.5,-107.25 101.62,-107.25 56.12,0 101.63,48 101.63,107.25 0,41.67 -22.56,77.71 -55.46,95.46 58.35,-18.9 100.46,-72.61 100.46,-136 C 646.63,457.72 581,393.58 500,393.58 Z"
         id="path2358" />
    </g>
    <g
       id="g2396"
       transform="matrix(0.0398301,0,0,0.0398301,315.10057,155.94601)">
      <path
         d="m 692.45,341.84 a 201.85,201.85 0 0 1 32.36,109.86 c 0,112 -90.83,202.87 -202.88,202.87 -112.05,0 -202.87,-90.82 -202.87,-202.86 0,-112.04 90.83,-202.88 202.87,-202.88 0.62,0 1.23,0 1.85,0 -7.83,-0.76 -15.76,-1.17 -23.79,-1.17 -134.72,0 -243.94,109.21 -243.94,243.94 0,134.73 109.23,243.98 243.95,243.98 134.72,0 243.94,-109.21 243.94,-243.94 a 242.81,242.81 0 0 0 -51.49,-149.8 z"
         id="path2376" />
      <circle
         cx="615.69"
         cy="287.82999"
         r="40.119999"
         id="circle2378" />
      <path
         d="M 266.56,936.21 513.69,536.15 a 61.78,61.78 0 0 1 18,-18.75 l 10.11,-9.07 C 512.92,502.71 491.21,492.5 457.05,474.91 L 469,498.14 a 18.92,18.92 0 0 1 0.21,16.83 z"
         id="path2380" />
      <path
         d="M 184.81,889.33 446.71,437.79 A 40.59,40.59 0 0 1 456.93,426 c 9,-6.95 20.8,-13.78 28.26,-16.69 -21.37,-0.75 -82.21,-33.27 -93,-40.87 l 9.8,24.27 a 28.41,28.41 0 0 1 -0.64,22.06 z"
         id="path2382" />
    </g>
  </g>
</svg>
