<?xml version="1.0" encoding="UTF-8"?>
<svg width="497.06mm" height="248.53mm" version="1.1" viewBox="0 0 497.06 248.53" xmlns="http://www.w3.org/2000/svg" xmlns:cc="http://creativecommons.org/ns#" xmlns:dc="http://purl.org/dc/elements/1.1/" xmlns:rdf="http://www.w3.org/1999/02/22-rdf-syntax-ns#">
 <metadata>
  <rdf:RDF>
   <cc:Work rdf:about="">
    <dc:format>image/svg+xml</dc:format>
    <dc:type rdf:resource="http://purl.org/dc/dcmitype/StillImage"/>
    <dc:title/>
   </cc:Work>
  </rdf:RDF>
 </metadata>
 <path transform="scale(.26458)" d="m1691.8 36.805a5.8334 5.8334 0 0 0-5.8105 5.834 5.8334 5.8334 0 0 0 5.8339 5.832 5.8334 5.8334 0 0 0 5.834-5.832 5.8334 5.8334 0 0 0-5.834-5.834 5.8334 5.8334 0 0 0-0.0234 0zm17.062 2c11.412 2.7503 19.992 14.525 19.992 28.635 0 6.3676-1.7543 12.255-4.7207 17.057l-3.5957-5.2324a1.3624 1.3624 0 0 1-0.1074-1.3535l1.1035-2.3281-9.9922 7.9004 2.0976-0.53516a1.5054 1.5054 0 0 1 1.4942 0.45117l5.3008 5.8828c-2.1086 2.1872-4.5348 3.9637-7.1895 5.2285l-35.762-44.758-0.5449 0.82031-0.0235-0.021485a34.493 34.493 0 0 0-8.2636 22.441c0 19.13 15.506 34.641 34.641 34.641 4.7794 0 9.3312-0.9672 13.473-2.7168l31.322 33.201-27.881-34.895c2.7958-1.5675 5.3557-3.5058 7.6035-5.7578l22.084 24.508-19.15-27.861c4.5037-5.8461 7.1875-13.167 7.1875-21.119 0.0015-17.232-12.586-31.521-29.068-34.188zm-649.08 3.748-14.564 14.451 7.0156-2.8262a0.88968 0.88968 0 0 1 0.9649 0.19922l4.4336 4.4922c-6.7337 6.8359-10.889 16.173-10.889 26.475 0 18.938 14.022 34.63 32.352 37.473-12.322-3.0349-21.57-15.801-21.57-31.088 0-9.4375 3.5251-17.909 9.1172-23.73l4.3105 4.3672c-4.6181 3.9045-7.5566 9.7089-7.5566 16.203 0 9.7414 6.6017 17.948 15.605 20.473-5.6994-2.374-9.7343-8.189-9.7343-15.004 0-6.4058 3.5704-11.924 8.7324-14.533l20.773 21.049c-1.7272 4.0815-5.0198 7.2756-9.084 8.7402 4.4053-1.0086 8.2795-3.3744 11.184-6.6133l3.2813 3.3242-2.8535-3.8086c3.1147-3.6918 5-8.4376 5-13.627 0-11.76-9.6057-21.291-21.453-21.291-2.9907 0-5.8373 0.60992-8.4238 1.707l-4.1328-5.5176c3.7304-2.2459 7.9593-3.5215 12.445-3.5215 15.028 0 27.209 14.223 27.209 31.783 0 15.704-9.7535 28.74-22.57 31.313 19.144-2.1226 34.031-18.186 34.031-37.697 0-20.952-17.162-37.938-38.332-37.938-7.5148 0-14.518 2.1497-20.434 5.8477l-5.3086-7.0879c0.3689-1.0056 0.4662-2.2584 0.4512-3.6133zm-896.91 17.219c-20.281 0-36.723 16.439-36.723 36.721 0 7.9662 2.544 15.335 6.8535 21.354l-17.578 38.521 20.352-35.088c2.5511 2.7878 5.5307 5.1746 8.8281 7.0703l-16.873 35.074 20.529-33.234c4.479 1.9458 9.417 3.0312 14.611 3.0312 20.281 0 36.723-16.441 36.723-36.723a36.552 36.552 0 0 0-7.75-22.549h-0.00195a30.386 30.386 0 0 1 4.873 16.537c0 16.86-13.673 30.539-30.541 30.539-3.8756 0-7.5792-0.72853-10.99-2.0449l9.748-15.781a9.3003 9.3003 0 0 1 2.7109-2.8223l1.5215-1.3652c-4.3476-0.84603-7.6154-2.3833-12.758-5.0312l1.7988 3.4961a2.8482 2.8482 0 0 1 0.03125 2.5352l-7.9629 16.553c-2.9763-1.8183-5.6141-4.1321-7.8047-6.8262l12.381-21.346a6.1104 6.1104 0 0 1 1.5391-1.7754c1.3548-1.0462 3.1309-2.0736 4.2539-2.5117-3.217-0.1129-12.376-5.0083-14-6.1523l1.4746 3.6523a4.2768 4.2768 0 0 1-0.0957 3.3223l-8.9551 19.625c-2.1892-4.2103-3.4336-8.9908-3.4336-14.064 0-16.866 13.675-30.541 30.541-30.541h0.27734c-1.1787-0.11441-2.3712-0.17578-3.5801-0.17578zm17.416 0.00586a6.0396 6.0396 0 0 0-6.0391 6.041 6.0396 6.0396 0 0 0 6.0391 6.0391 6.0396 6.0396 0 0 0 6.0391-6.0391 6.0396 6.0396 0 0 0-6.0391-6.041zm1314.4 3.2695-29.449 21.131c-6.3958-5.6459-14.79-9.0781-23.992-9.0781a36.463 36.463 0 0 0-6.2754 0.55274 31.928 31.928 0 0 1 3.498-0.19727c9.5075 0 18.026 4.1998 23.82 10.84l-8.2481 5.918a2.5998 2.5998 0 0 1-1.5254 0.48828l-4.0722 0.16992c3.7107 2.7624 6.7365 5.7209 9.8632 9.2676l-0.0507-3.875a1.9239 1.9239 0 0 1 0.6035-1.4258l6.6054-6.2285c2.9285 4.7939 4.6153 10.429 4.6153 16.459 0 6.0534-1.7011 11.706-4.6504 16.512l-2.7051-3.1211a2.5366 2.5366 0 0 1-0.6211-1.6562v-3.5762c-2.669 2.6976-5.9647 5.3539-9.5957 7.9883l3.9981-0.02343a2.6811 2.6811 0 0 1 1.7929 0.67578l4.2031 3.7266c-5.229 6.1171-12.748 10.212-21.234 10.957l-0.0215-5.3965a1.525 1.525 0 0 1 0.5723-1.2031l2.246-2.0234c-4.0269 0.5028-8.1824 0.47571-12.447 0l2.2226 2.709a4.4093 4.4093 0 0 1 1.0313 2.0723l0.7656 3.8398c-7.6177-0.67619-14.458-4.048-19.557-9.1621l26.896-24.857-29.82 21.482c-3.9567-5.279-6.3007-11.837-6.3007-18.943a31.463 31.463 0 0 1 4.4336-16.15 36.107 36.107 0 0 0-6.3243 20.461c0 6.2865 1.6007 12.198 4.4141 17.354l-9.4355 6.7969a2.6179 2.6179 0 0 1-1.6016 0.49218l-4.0645-0.10351a102.52 102.52 0 0 1 9.1075 9.6328l-0.0606-3.4961a1.9374 1.9374 0 0 1 0.6231-1.457l8.1875-7.5664c5.8948 7.9126 14.938 13.338 25.275 14.424l3.9765 19.963-0.082-19.762c11.486-0.01828 21.713-5.3771 28.348-13.723l20.51 18.186-18.363-21.189c3.6187-5.6434 5.7266-12.349 5.7266-19.551 0-9.0946-3.3541-17.4-8.8828-23.768l26.045-24.564zm184.06 1.5859 29.736 31.52c-1.5371 0.34268-3.1234 0.5293-4.7461 0.5293-13.863 0-25.102-13.097-25.102-29.242a33.118 33.118 0 0 1 0.1113-2.8066zm-257.83 11.896a5.9463 5.9463 0 0 0-5.9453 5.9473 5.9463 5.9463 0 0 0 5.9453 5.9453 5.9463 5.9463 0 0 0 5.9472-5.9453 5.9463 5.9463 0 0 0-5.9472-5.9473zm-336.25 1.3613c8.5129 0 15.412 7.2271 15.412 16.146 0 1.8828-0.3163 3.6844-0.8828 5.3633l-16.053-21.428c0.5014-0.051541 1.0092-0.082031 1.5235-0.082031zm-0.8164 14.227a6.4355 6.4355 0 0 0-6.3536 6.4355 6.4355 6.4355 0 0 0 6.4356 6.4355 6.4355 6.4355 0 0 0 6.4355-6.4355 6.4355 6.4355 0 0 0-6.4355-6.4355 6.4355 6.4355 0 0 0-0.082 0zm-413.27 59.166 27.926 22.227c-3.6869 5.7103-5.834 12.508-5.834 19.811 0 8.3811 2.824 16.097 7.5644 22.266l-28.453 33.471 31.941-29.545c6.5917 6.4256 15.594 10.389 25.527 10.389 20.204 0 36.58-16.376 36.58-36.58a36.396 36.396 0 0 0-5.6973-19.596 29.93 29.93 0 0 1 3.1016 13.301c0 16.54-13.345 29.949-29.807 29.949-7.3503 0-14.074-2.6795-19.271-7.1113l10.088-9.332a5.1288 5.1288 0 0 1 4.0781-1.3301l3.4492 0.4043-9.1113-9.2539c2.1247-4.2048 5.3566-8.9837 9.1875-14.08l-6.5469 4.8633a3.1237 3.1237 0 0 1-3.4414 0.18945l-14.639-8.5762c5.0481-9.3335 14.891-15.67 26.207-15.67 0.31143 0 0.6191 0.01286 0.92774 0.02344a36.862 36.862 0 0 0-5.1055-0.36133c-11.07 0-20.984 4.9228-27.691 12.691l-30.98-18.148zm78.518 9.1816a6.3798 6.3798 0 0 0-6.3398 6.3809 6.3798 6.3798 0 0 0 6.3789 6.3789 6.3798 6.3798 0 0 0 6.3789-6.3789 6.3798 6.3798 0 0 0-6.3789-6.3809 6.3798 6.3798 0 0 0-0.03906 0zm-44.256 18.086 16.031 12.76-11.447 13.467c-3.6452-4.9678-5.8027-11.107-5.8027-17.752 0-2.9448 0.43038-5.7863 1.2188-8.4746zm-262.27 17.137a5.9297 5.9297 0 1 0 6.0234 5.9297 5.9297 5.9297 0 0 0-5.9297-5.9297 5.9297 5.9297 0 0 0-0.09375 0zm7.6699 16.359c-4.6185 1.4181-10.989 1.6158-17.875 1.4668l5.3457 2.7109c1.117 0.55699 1.8519 0.55717 1.9316 1.8066l0.24219 3.8594c-19.993 1.5672-35.717 17.761-35.717 37.518 0 18.841 14.302 34.452 32.961 37.219-12.206-3.1734-21.33-15.822-21.33-30.951 0-16.553 10.919-30.138 24.85-31.59l0.41407 6.6152c-11.254 0.98856-20.07 10.223-20.07 21.473 0 9.5366 6.3391 17.623 15.123 20.475-4.9527-2.6841-8.3496-8.104-8.3496-14.377 0-8.46 6.1701-15.39 14.018-16.078l1.9629 31.312 2.2441-31.078c7.0475 1.4418 12.373 7.9819 12.373 15.844 0 6.273-3.3969 11.699-8.3496 14.371 8.7839-2.8452 15.123-10.932 15.123-20.475 0-10.652-7.9141-19.497-18.316-21.24l0.47656-6.6074c13.107 2.3348 23.146 15.483 23.146 31.355 0 15.045-9.0217 27.636-21.125 30.896 18.506-2.8979 32.641-18.431 32.641-37.164 0-19.115-14.717-34.892-33.779-37.318l0.38477-5.3184a6.6448 6.6448 0 0 1 0.56055-2.2344l1.1152-2.4902zm1195.4 63.459-0.7364 1.2617 0.6016 2.2031c0.1251 0.45614 0.1488 0.62977-0.0723 1.1055l-6.7246 10.607c-3.8115-1.441-7.9396-2.2344-12.256-2.2344-2.8935 0-5.7019 0.35964-8.3887 1.0273l-0.4024-10.361a5.445 5.445 0 0 1 0.3614-2.0898l0.4062-1.0801-11.879 2.457 3.1504 2.7363c0.6895 0.70753 1.6546 2.0558 1.8984 3.0117l1.8204 6.8398c-12.69 5.1522-21.643 17.596-21.643 32.135a34.517 34.517 0 0 0 7.0762 20.982 28.313 28.313 0 0 1-5.043-16.156c0-13.465 9.3868-24.755 22.039-27.83l3.0762 11.559-0.4687-12.072c1.4116-0.20912 2.8556-0.32031 4.3261-0.32031 3.3184 0 6.5037 0.56017 9.4727 1.5762l-5.0508 7.9668c1.7884 0.35226 4.2161 0.98983 5.9668 3.0898l5.0957-8.1894c5.9599 3.7369 10.444 9.5631 12.4 16.441l-13.928 5.3965 14.523-2.8613c0.3182 1.7014 0.4922 3.4516 0.4922 5.2441 0 15.831-12.972 28.664-28.973 28.664a29.116 29.116 0 0 1-12.242-2.6836 34.512 34.512 0 0 0 15.912 3.8691c19.152 0 34.674-15.526 34.674-34.676 0-0.78887-0.036-1.568-0.0879-2.3438l5.7129-1.125a1.2043 1.2043 0 0 1 1.0957 0.3457l4.9375 4.9688c-1.2044-6.6523-1.6098-13.055-1.3555-15.412l-1.4277 2.4941a1.9751 1.9751 0 0 1-1.0176 1.0195l-8.5176 3.3008c-1.9014-9.6323-7.79-17.829-15.877-22.803l6.4804-10.416c0.5947-0.75719 0.5944-0.75728 1.6602-0.93946l3.9531-0.66796c-2.7548-1.0161-6.8821-3.4487-11.043-6.041zm-1538.5 16.236 3.3945 2.2578a2.0684 2.0684 0 0 1 0.91211 1.5352l0.49414 5.5137c-12.286 3.1594-22.087 12.402-25.918 24.281l-9.5371 0.05664 0.56445 13.111 2.6621-3.1016c0.52387-0.54043 1.8664-1.1851 2.6191-1.2559l2.043-0.1914c-0.056519 0.82701-0.095703 1.6588-0.095703 2.5 0 19.237 15.023 34.994 34.102 36.459l2.1953 24.506-0.08008-24.402c0.26266 0.00544 0.52314 0.01953 0.78711 0.01953 18.569 0 33.94-13.522 36.596-31.148-2.6916 12.063-15.656 21.213-31.035 21.213-2.1901 0-4.325-0.18613-6.3828-0.53906l-0.10547-31.979 62.035-5.8125-62.053 0.36329-0.04492-13.99c1.1652-0.14778 2.3508-0.23437 3.5586-0.23437 3.0303 0 5.9343 0.08538 8.6289 0.90429l0.2168 0.08008c2.1075 0.66388 4.3299 1.4405 6.2207 2.4883a3.7544 3.7544 0 0 1 1.6074 1.752l1.5176 3.3926a8.2555 8.2555 0 0 1 4.2012-1.8516l1.668-6.6055a37.091 37.091 0 0 0-26.629-11.195c-0.34455 0-0.68505 0.01614-1.0273 0.02539l-0.01563-4.6191a3.4774 3.4774 0 0 1 0.57422-1.9258l1.0606-1.6074c-4.4469 0.55849-9.4113 0.49527-14.734 0zm5.877 21.324 1.084 12.1-15.053 0.08789c3.0391-5.2775 7.9631-9.7016 13.969-12.188zm1510.2 5.7832a5.6452 5.6452 0 0 0-5.5684 5.6445 5.6452 5.6452 0 0 0 5.6446 5.6445 5.6452 5.6452 0 0 0 5.6464-5.6445 5.6452 5.6452 0 0 0-5.6464-5.6445 5.6452 5.6452 0 0 0-0.0762 0zm-1508.6 12.264 2.7578 30.777c-12.624-3.3131-21.682-13.096-21.682-24.65 0-1.4765 0.15836-2.9471 0.44922-4.3965l18.475-1.7305zm1495.8 3.7676-25.906 39.969 31.832-35.254c-2.252-1.2675-4.172-2.9008-5.9258-4.7148zm-1475.6 1.5703a6.4355 6.4355 0 0 0-6.3516 6.4356 6.4355 6.4355 0 0 0 6.4355 6.4356 6.4355 6.4355 0 0 0 6.4356-6.4356 6.4355 6.4355 0 0 0-6.4356-6.4356 6.4355 6.4355 0 0 0-0.08398 0zm701.45 27.449 27.926 22.227c-3.6869 5.7103-5.834 12.508-5.834 19.811 0 8.3811 2.824 16.097 7.5645 22.266l-28.453 33.471 31.941-29.545c6.5917 6.4256 15.594 10.389 25.527 10.389 20.204 0 36.582-16.376 36.582-36.58a36.396 36.396 0 0 0-5.6992-19.596 29.93 29.93 0 0 1 3.1016 13.301c0 16.54-13.345 29.949-29.807 29.949-7.3503 0-14.074-2.6795-19.271-7.1113l10.088-9.332a5.1288 5.1288 0 0 1 4.0781-1.3301l3.4492 0.4043-9.1113-9.2539c2.1247-4.2048 5.3566-8.9837 9.1875-14.08l-6.5469 4.8633a3.1237 3.1237 0 0 1-3.4414 0.18946l-14.639-8.5762c5.0481-9.3335 14.891-15.67 26.207-15.67 0.31143 0 0.61909 0.01286 0.92773 0.02344a36.862 36.862 0 0 0-5.1055-0.36133c-11.07 0-20.983 4.9228-27.691 12.691l-30.98-18.148zm78.518 9.1816a6.3798 6.3798 0 0 0-6.3398 6.3809 6.3798 6.3798 0 0 0 6.3789 6.3789 6.3798 6.3798 0 0 0 6.3809-6.3789 6.3798 6.3798 0 0 0-6.3809-6.3809 6.3798 6.3798 0 0 0-0.03907 0zm-44.256 18.086 16.031 12.76-11.447 13.467c-3.6452-4.9678-5.8027-11.107-5.8027-17.752 0-2.9448 0.43038-5.7863 1.2188-8.4746zm344.38 55.246-15.926 7.7402 1.2734 1.2559a11.927 11.927 0 0 1 2.4746 3.5625l6.0781 13.395c-3.5723 2.1258-6.7856 4.8526-9.5039 8.0273l-0.7988-1.293a11.31 11.31 0 0 1-1.5703-4.3203l-0.1602-1.1016-10.84 13.512 3.6972-1.543a2.0624 2.0624 0 0 1 2.293 0.48047l2.0918 2.2031c-1.9762 3.9353-3.2951 8.2224-3.8008 12.678l10.887 7.6602c-0.4895-3.0891 0.1844-6.998 2.0098-10.758l20.07 21.137-16.424-26.586c2.1964-2.4702 5.0106-4.5964 8.4492-5.9922l6.418 14.145-3.1895-15.178c2.1661-0.52872 4.5268-0.79179 7.0938-0.70312 13.458 0.45161 22.844 9.8854 24.064 23.297 2.0067 22.048-14.787 31.388-26.16 32.365 25.557-0.00755 38.974-20.689 39.359-36.375 0.5359-21.255-16.709-37.335-37.539-36.582-3.5371 0.12567-6.9556 0.81862-10.186 1.9727l-3.2109-15.283c-0.271-1.2615-0.0969-1.5682 0.4902-2.7168l2.5586-4.998zm-902.91 8.2422-15.926 7.7383 1.2734 1.2578a11.927 11.927 0 0 1 2.4746 3.5606l6.0781 13.396c-3.5721 2.1257-6.7858 4.8528-9.5039 8.0273l-0.79883-1.293a11.31 11.31 0 0 1-1.5703-4.3203l-0.16016-1.1016-10.84 13.512 3.6973-1.5449a2.0624 2.0624 0 0 1 2.293 0.48242l2.0918 2.2031c-1.9758 3.9348-3.2952 8.223-3.8008 12.678l10.887 7.6582c-0.48954-3.0891 0.1844-6.998 2.0098-10.758l20.07 21.139-16.424-26.586c2.1964-2.4704 5.0105-4.5964 8.4492-5.9922l6.418 14.143-3.1875-15.176c2.1657-0.52847 4.5254-0.79372 7.0918-0.70508 13.458 0.45162 22.844 9.8874 24.064 23.299 2.0067 22.048-14.787 31.388-26.16 32.365 25.557-0.00756 38.974-20.691 39.359-36.377 0.53592-21.255-16.709-37.333-37.539-36.58-3.5363 0.12564-6.9542 0.81714-10.184 1.9707l-3.2109-15.281c-0.27095-1.2615-0.09882-1.5682 0.48828-2.7168l2.5586-4.998zm921.83 43.559c-3.2908 0-5.957 2.5883-5.957 5.7812 0 3.1869 2.6678 5.7789 5.957 5.7774 3.2893-0.00148 5.9512-2.5903 5.9512-5.7832l0.0058 0.00586c0-3.1929-2.6662-5.7812-5.957-5.7812zm415.22 0.96485a6.4355 6.4355 0 0 0-6.3516 6.4355 6.4355 6.4355 0 0 0 6.4356 6.4356 6.4355 6.4355 0 0 0 6.4355-6.4356 6.4355 6.4355 0 0 0-6.4355-6.4355 6.4355 6.4355 0 0 0-0.084 0zm-1318.1 7.2754c-3.2908 0-5.9551 2.5883-5.9551 5.7812 0 3.1869 2.6658 5.7788 5.9551 5.7773 3.2893-0.00147 5.9512-2.5903 5.9512-5.7832l0.00585 0.00586c0-3.193-2.6662-5.7812-5.957-5.7812zm1333.6 0.4043a30.204 30.204 0 0 1 13.959 22.062l-58.705-0.3125a30.209 30.209 0 0 1 13.252-21.314c-8.5507 4.3275-15.173 11.982-18.27 21.287l-16.23-0.08594c-0.6504-1.2314-2.1889-2.427-3.9141-3.6133 0.5766 4.9015 0.5775 10.34 0.2266 16.107a22.079 22.079 0 0 0 4.1386-5.6445l14.322-0.79492c-0.3009 1.9145-0.4727 3.8742-0.4727 5.875 0 19.859 15.397 36.06 34.717 36.951l1.7891 27.367 1.1191-27.355c19.527-0.66171 35.16-16.947 35.16-36.963 0-3.4018-0.4701-6.6882-1.3164-9.8164l27.209-1.5117-27.699-0.14844c-3.1466-9.7945-10.19-17.798-19.285-22.09zm14.129 24.062a30.204 30.204 0 0 1 0.0391 1.6387c0 15.961-12.207 29.012-27.631 30.035l0.459-11.217 4.1113-2.0703a104.85 104.85 0 0 1-13.596 0.03711l3.8379 2.4082 0.7051 10.797c-14.618-1.2627-26.208-13.341-27.002-28.348l59.076-3.2812zm-925.83 116.9 12.127 18.055c-13.693 5.028-23.537 17.947-23.99 33.213l-30.814-0.42383 30.918 4.5078c1.0985 13.514 9.574 24.948 21.42 30.309l-7.1758 27.432 11.018-25.943c3.5714 1.1529 7.3805 1.7812 11.338 1.7812 10.515 0 19.99-4.4048 26.686-11.453l13.959 18.148-10.811-21.941c4.3354-6.0019 6.8965-13.36 6.8965-21.316a36.299 36.299 0 0 0-2.9004-14.266 30.841 30.841 0 0 1 1.6953 10.098c0 7.9851-3.0323 15.265-8.0137 20.771l-0.97852-1.9844a3.783 3.783 0 0 1-0.33984-2.3086l0.45117-2.6191c-2.9762 2.8512-6.1438 5.3448-9.6348 7.2266l2.6719 0.61718a4.1022 4.1022 0 0 1 2.3301 1.4961l1.1777 1.5312c-5.2655 3.9905-11.839 6.3652-18.975 6.3652-3.9945 0-7.8116-0.74955-11.324-2.1035l0.71289-1.6777a4.0299 4.0299 0 0 1 1.9922-2.0723l2.4473-1.1524c-3.7333-0.90323-7.7537-2.7846-11.969-5.3438l2.0664 3.0117a2.1994 2.1994 0 0 1 0.31445 1.8066l-0.74805 2.8574c-6.4732-3.9968-11.365-10.273-13.547-17.699l1.2656 0.1836a3.8779 3.8779 0 0 1 1.709 0.68945l2.9941 2.1562c-0.66539-3.9155-0.74064-7.7162 0-11.365l-3.0996 2.3125a2.7097 2.7097 0 0 1-1.6562 0.53515l-2.3047-0.03125c-0.1085-1.053-0.16602-2.1217-0.16602-3.2031 0-11.772 6.5877-22.013 16.301-27.293l2.4375 3.6309a1.8998 1.8998 0 0 1 0.31445 1.2422l-0.38672 3.9902c2.7232-2.8226 6.1723-5.1988 10.199-7.2266l-4.3164-0.76758a2.4553 2.4553 0 0 1-1.3125-0.6875l-2.2383-2.25c3.2304-1.119 6.6998-1.7344 10.314-1.7344a31.44 31.44 0 0 1 10.838 1.916 36.731 36.731 0 0 0-15.053-3.2148c-2.8186 0-5.5608 0.32547-8.1973 0.92383l-16.643-16.729zm72.787 7.7148-33.928 24.16a3.342 3.342 0 0 1-1.8848 0.61914l-3.5547 0.05859a59.931 59.931 0 0 1 9.4844 9.334l-0.02343-3.0254a3.6129 3.6129 0 0 1 1.0781-2.6016l28.828-28.545zm534.8 24.105c-18.245 2.6766-32.254 18.388-32.254 37.377 0 20.868 16.918 37.785 37.785 37.785 10.805 0 20.543-4.5418 27.43-11.812l20.272 20.508-17.861-23.314c4.975-6.3988 7.9453-14.433 7.9453-23.166a37.608 37.608 0 0 0-4.1192-17.152c-1.9976 1.9209-4.6278 3.1013-7.875 3.2578a37.454 37.454 0 0 1 0.8164 7.7988c0 6.9013-1.861 13.283-5.0136 18.498l-4.543-5.9297a21.31 21.31 0 0 0 0.8066-18.641c-1.3879 0.45312-2.8603 0.74384-4.873-0.00586a16.985 16.985 0 0 1 0.2812 3.0547c0 2.9158-0.7472 5.6424-2.0332 7.998l-7.7324-10.094c0.4803-2.5155 0.0946-4.2707-0.1133-5.5879l-11.629 9.4844 2.2578 0.41601a3.628 3.628 0 0 1 1.9278 1.0176l10.215 10.334c-2.3344 1.553-5.0893 2.4648-8.0508 2.4648-8.3714 0-15.156-7.186-15.156-16.033 0-7.3764 4.7201-13.577 11.141-15.443a21.31 21.31 0 1 0 19.107 36.137l5.1778 5.2383c-4.8393 5.5254-11.419 8.9297-18.678 8.9297-14.866 0-26.908-14.253-26.908-31.838 0-15.466 9.3216-28.351 21.678-31.232v-0.04883zm20.184 2.002a6.3798 6.3798 0 0 0-6.3418 6.3789 6.3798 6.3798 0 0 0 6.3808 6.3809 6.3798 6.3798 0 0 0 6.3789-6.3809 6.3798 6.3798 0 0 0-6.3789-6.3789 6.3798 6.3798 0 0 0-0.039 0zm-602.67 9.8711a6.0592 6.0592 0 0 0-6.0586 6.0586 6.0592 6.0592 0 0 0 6.0586 6.0606 6.0592 6.0592 0 0 0 6.0606-6.0606 6.0592 6.0592 0 0 0-6.0606-6.0586zm944.2 17.854a6.4355 6.4355 0 0 0-6.4355 6.4356 6.4355 6.4355 0 0 0 6.4355 6.4356 6.4355 6.4355 0 0 0 6.4356-6.4356 6.4355 6.4355 0 0 0-6.4356-6.4356zm15.412 7.6816a30.204 30.204 0 0 1 13.961 22.062l-58.707-0.3125a30.209 30.209 0 0 1 13.252-21.314c-8.5506 4.3275-15.171 11.982-18.268 21.287l-16.232-0.08594c-0.6504-1.2314-2.1889-2.427-3.9141-3.6133 0.5766 4.9015 0.5775 10.34 0.2266 16.107a22.079 22.079 0 0 0 4.1406-5.6445l14.322-0.79492c-0.301 1.9145-0.4727 3.8722-0.4727 5.873 0 19.86 15.397 36.062 34.717 36.953l1.7871 27.367 1.1192-27.355c19.527-0.66136 35.162-16.949 35.162-36.965 0-3.4018-0.4721-6.6862-1.3184-9.8144l27.211-1.5117-27.701-0.14844c-3.1466-9.7945-10.19-17.798-19.285-22.09zm14.129 24.062a30.204 30.204 0 0 1 0.0391 1.6387c0 15.961-12.207 29.012-27.631 30.035l0.459-11.217 4.1114-2.0703a104.85 104.85 0 0 1-13.596 0.03711l3.8399 2.4082 0.7051 10.797c-14.618-1.2627-26.21-13.341-27.004-28.348l59.076-3.2812zm-1574.5 1.9551-14.777 3.3633 3.7637 1.8828a2.0789 2.0789 0 0 1 1.0527 1.2461l2.7207 8.8164a37.716 37.716 0 0 0-1.6543-0.03907c-2.3115-3.4e-4 -4.5704 0.22037-6.7656 0.6211l-3-7.6035a3.914 3.914 0 0 1-0.26172-1.7344l0.24023-3.1172-15.328 8.3398 5.0488 0.22657a0.97248 0.97248 0 0 1 0.74219 0.39453l4.3906 5.9785c-13.155 5.7338-22.352 18.806-22.352 34.025 0 20.511 16.696 37.119 37.283 37.119 18.516 0 33.87-13.449 36.777-31.072-3.0062 12.206-16.102 21.176-31.574 20.768-17.413-0.45914-31.218-12.624-30.834-27.172 0.27443-10.417 7.7547-19.22 18.371-23.215l12.098 16.477-7.082-17.953c2.3599-0.5069 4.827-0.78395 7.3652-0.81446l5.1387 16.652-1.3633-43.189zm13.984 16.938a5.8153 5.8153 0 1 0 5.8164 5.752 5.7837 5.7837 0 0 0-5.8164-5.752zm288.33 7.3438-0.01953 28.889c-11.883 4.7624-20.699 15.485-22.672 28.443 2.604-9.5407 11.418-17.072 22.666-19.436l-0.03515 50.586c-10.83-2.286-19.398-9.3709-22.328-18.418 2.451 12.176 10.986 22.169 22.322 26.73l-0.00781 10.557a7.3884 7.3884 0 0 1-1.4043 4.3281l-3.3398 4.6113c5.2689-1.6559 10.598-2.3361 15.957-2.2578l-2.9102-3.252a3.7815 3.7815 0 0 1-0.96094-2.4316l-0.22656-9.4941c2.1834 0.40004 4.4324 0.61328 6.7324 0.61328 20.369 0 36.883-16.396 36.883-36.619 0-20.223-16.513-36.617-36.883-36.617-3.114 0-6.135 0.38993-9.0234 1.1113-2.2887-11.233-4.5252-22.314-4.75-27.344zm7.4883 37.107c17.106 0 30.975 11.678 30.975 26.082 0 14.404-13.867 26.08-30.975 26.08-0.22771 0-0.44926-0.01931-0.67579-0.02343l-1.2383-52.084c0.63393-0.0326 1.2704-0.05469 1.9141-0.05469zm14.277 18.592a6.3798 6.3798 0 0 0-6.3398 6.3809 6.3798 6.3798 0 0 0 6.3789 6.3789 6.3798 6.3798 0 0 0 6.3809-6.3789 6.3798 6.3798 0 0 0-6.3809-6.3809 6.3798 6.3798 0 0 0-0.03906 0z" stroke-width=".15054"/>
</svg>
